{"title":"MIT OpenCourseWare 6.001 Structure and Interpretation of Compute","uid":5765112,"size":9639629661,"categoryP":"other","categoryS":"other","magnet":"?xt=urn:btih:c641635828bdf48f11e7ee0daa34df43667be898&amp;dn=MIT+OpenCourseWare+6.001+Structure+and+Interpretation+of+Compute&amp;tr=udp%3A%2F%2Ftracker.openbittorrent.com%3A80&amp;tr=udp%3A%2F%2Fopen.demonii.com%3A1337&amp;tr=udp%3A%2F%2Ftracker.coppersurfer.tk%3A6969&amp;tr=udp%3A%2F%2Fexodus.desync.com%3A6969","seeders":1,"leechers":0,"uploader":"gnu00b","files":26,"time":1281871383,"description":"This contains all of the files used by 6.001, including the textbook, MIT Scheme, and video lectures.\n\nMIT/GNU Scheme (Windows 32-bit, MacOS X 32-bit, and MacOS X 64-bit) &lt;a href=&quot;\nhttp://groups.csail.mit.edu/mac/projects/scheme/&quot; rel=&quot;nofollow&quot; target=&quot;_NEW&quot;&gt;\nhttp://groups.csail.mit.edu/mac/projects/scheme/&lt;/a&gt;\n\nStructure and Interpretation of Computer Programs &lt;a href=&quot;\nhttp://mitpress.mit.edu/sicp/&quot; rel=&quot;nofollow&quot; target=&quot;_NEW&quot;&gt;\nhttp://mitpress.mit.edu/sicp/&lt;/a&gt;\n\nVideo Lectures &lt;a href=&quot;\nhttp://groups.csail.mit.edu/mac/classes/6.001/abelson-sussman-lectures/&quot; rel=&quot;nofollow&quot; target=&quot;_NEW&quot;&gt;\nhttp://groups.csail.mit.edu/mac/classes/6.001/abelson-sussman-lectures/&lt;/a&gt;\n\n   General\n      Complete name : \\\\MIT OCW 6.001 SICP\\\\Video Lectures\\\\Lecture-1a.avi\n      Format : AVI\n      Format/Info : Audio Video Interleave\n      File size : 482 MiB\n      Duration : 1h 12mn\n      Overall bit rate : 924 Kbps\n      Writing library : AVI plugin release\n   Video #0\n      ID : 0\n      Format : MPEG-4 Visual\n      Codec ID : DIV3\n      Codec ID/Hint : DivX 3 Low\n      Duration : 1h 12mn\n      Bit rate : 853 Kbps\n      Width : 320 pixels\n      Height : 240 pixels\n      Display aspect ratio : 4:3\n      Frame rate : 29.970 fps\n      Resolution : 24 bits\n      Bits/(Pixel*Frame) : 0.371\n      Stream size : 445 MiB (92%)\n   Audio #1\n      ID : 1\n      Format : MPEG Audio\n      Format version : Version 1\n      Format profile : Layer 3\n      Codec ID : 55\n      Codec ID/Hint : MP3\n      Duration : 1h 12mn\n      Bit rate mode : Constant\n      Bit rate : 64.0 Kbps\n      Channel(s) : 1 channel\n      Sampling rate : 48.0 KHz\n      Resolution : 16 bits\n      Stream size : 33.4 MiB (7%)\n      Alignment : Split accross interleaves\n      Interleave, duration : 200 ms (6.00 video frames)","torrent":{"xt":"urn:btih:c641635828bdf48f11e7ee0daa34df43667be898","amp;dn":"MIT+OpenCourseWare+6.001+Structure+and+Interpretation+of+Compute","amp;tr":["udp%3A%2F%2Ftracker.openbittorrent.com%3A80","udp%3A%2F%2Fopen.demonii.com%3A1337","udp%3A%2F%2Ftracker.coppersurfer.tk%3A6969","udp%3A%2F%2Fexodus.desync.com%3A6969"],"infoHash":"c641635828bdf48f11e7ee0daa34df43667be898","infoHashBuffer":{"type":"Buffer","data":[198,65,99,88,40,189,244,143,17,231,238,13,170,52,223,67,102,123,232,152]},"announce":[],"urlList":[]}}